<?xml version="1.0" encoding="UTF-8" standalone="no"?>
<!-- Created with Inkscape (http://www.inkscape.org/) -->

<svg
   xmlns:dc="http://purl.org/dc/elements/1.1/"
   xmlns:cc="http://creativecommons.org/ns#"
   xmlns:rdf="http://www.w3.org/1999/02/22-rdf-syntax-ns#"
   xmlns:svg="http://www.w3.org/2000/svg"
   xmlns="http://www.w3.org/2000/svg"
   xmlns:sodipodi="http://sodipodi.sourceforge.net/DTD/sodipodi-0.dtd"
   xmlns:inkscape="http://www.inkscape.org/namespaces/inkscape"
   id="svg2"
   version="1.1"
   inkscape:version="0.48.3.1 r9886"
   width="800"
   height="800"
   xml:space="preserve"
   sodipodi:docname="pdxgit-simantel-green.svg"
   inkscape:export-filename="/home/bart/prj/graphics/pdxgit-logo/pdxgit-simantel-green.png"
   inkscape:export-xdpi="90"
   inkscape:export-ydpi="90"><metadata
     id="metadata8"><rdf:RDF><cc:Work
         rdf:about=""><dc:format>image/svg+xml</dc:format><dc:type
           rdf:resource="http://purl.org/dc/dcmitype/StillImage" /><dc:title></dc:title></cc:Work></rdf:RDF></metadata><defs
     id="defs6"><clipPath
       clipPathUnits="userSpaceOnUse"
       id="clipPath16"><path
         d="M 0,400 800,400 800,0 0,0 0,400 z"
         id="path18"
         inkscape:connector-curvature="0" /></clipPath><clipPath
       clipPathUnits="userSpaceOnUse"
       id="clipPath48"><path
         d="M 0,400 800,400 800,0 0,0 0,400 z"
         id="path50"
         inkscape:connector-curvature="0" /></clipPath><clipPath
       clipPathUnits="userSpaceOnUse"
       id="clipPath3086"><path
         d="m 110.14118,96.15192 c -2.40079,10.28806 -3.59375,18.25768 -5.78583,28.88092 -1.37773,6.67078 -2.85724,12.51603 -5.122032,18.85246 -1.27683,3.56977 -2.16391,10.07423 -4.83443,12.21525 0.31544,2.02154 -1.27271,3.3867 -2.0468,5.3849 -0.92778,2.39223 -1.1062,4.79857 -1.94523,7.50575 -0.63059,2.03607 -2.57221,12.87286 -5.31258,12.2147 2.01604,2.91872 -4.76556,12.28237 -5.93864,14.51298 -2.83107,5.38306 -2.14434,11.71827 -8.18848,15.18972 1.16244,0.34131 4.16138,-1.1774 5.15235,0.0217 -0.27799,0.12203 -0.6055,0.0803 -0.85483,0.27509 1.77559,1.74391 4.91027,4.56424 6.48613,5.47529 2.95932,1.71069 1.11443,-0.24203 4.70716,-1.20176 2.198,-0.58653 3.3867,1.06051 4.56256,2.66441 1.25476,1.71193 2.46774,0.72174 4.23892,0.70222 2.88922,-0.0316 7.056722,-1.82656 8.425732,-4.49944 0.82444,-1.60997 4.97181,-8.73291 6.08418,-8.83771 3.66887,-0.34448 6.78674,0.86978 9.73818,1.69743 2.67961,0.75335 3.48915,0.78803 5.71966,3.09358 1.31597,1.36026 2.68521,3.07212 3.73201,4.49694 1.3418,1.82573 0.39736,2.81144 3.56447,3.76088 1.73172,0.52054 2.56164,2.45637 4.12423,3.24458 1.25492,0.63196 2.86861,-0.63426 3.89702,0.76603 1.97322,2.68774 5.37162,-0.96178 6.2192,-0.66201 1.29563,0.45812 2.19062,2.46231 3.31434,3.60711 1.49797,1.52756 2.50129,1.47886 4.17104,3.63816 1.14019,1.47672 2.14127,3.40579 3.83952,4.28587 1.62401,0.84198 2.70324,-0.90985 4.52007,0.42685 3.72311,2.73916 5.1938,5.33755 8.53183,8.4307 1.97331,1.82945 3.94756,3.6586 5.92087,5.48806 1.1514,1.06761 -0.24961,3.62473 1.97547,3.59571 0.95077,-0.0129 7.30947,4.03166 8.16207,4.97377 3.41355,3.76848 4.47595,5.24502 9.2147,7.81386 7.8168,4.23712 15.54655,8.54323 23.34166,12.83041 5.03677,2.77023 10.0726,5.54076 15.10843,8.31129 3.12621,1.72002 2.30755,0.2827 4.92896,-0.96954 2.61601,-1.24946 4.10583,-1.49043 6.08446,-1.32879 10.22308,0.83755 7.80605,-8.43271 9.62618,-16.43816 0.63729,-2.80194 1.52641,-5.85615 1.13397,-8.71435 -0.41633,-3.02384 2.22208,-3.69117 1.89258,-6.57907 -0.25841,-2.27522 -0.53506,-3.58862 -0.84826,-5.5216 -0.30248,-1.87026 -0.0566,-3.18898 -0.15028,-5.28191 -0.0915,-2.05686 -0.29393,-9.43664 2.004,-10.17614 2.37695,-0.76493 0.62014,-1.88248 3.26869,-2.73376 0.9808,-0.31458 0.87457,2.32591 3.34433,0.60562 0.965,3.05422 1.5342,-0.22374 2.75198,0.0577 3.19931,0.74263 1.2541,-1.17255 2.14796,-2.94877 0.8935,-1.774 1.9725,-5.02168 3.08822,-8.03115 7.40736,-19.99024 22.12253,-40.83417 33.10115,-60.17941 C 273.96394,138.81592 240.82628,120.51751 207.0571,103.27955 191.82672,95.50334 175.83002,88.24791 160.26002,80.833108 l -27.47514,-13.08752 c -3.33346,-1.58714 -5.81089,1.2355 -7.61463,3.13854 -2.00166,2.11066 -3.94746,4.1109 -5.14886,7.02714 -1.25036,3.0318 -3.52856,11.719362 -7.39607,10.457462 -2.50267,3.06083 -2.55119,3.83385 -2.48414,7.78319"
         style="fill:#000000;fill-opacity:1;fill-rule:nonzero;stroke:none"
         id="path3088"
         inkscape:connector-curvature="0" /></clipPath><clipPath
       clipPathUnits="userSpaceOnUse"
       id="clipPath3090"><path
         d="m 110.14118,96.15192 c -2.40079,10.28806 -3.59375,18.25768 -5.78583,28.88092 -1.37773,6.67078 -2.85724,12.51603 -5.122032,18.85246 -1.27683,3.56977 -2.16391,10.07423 -4.83443,12.21525 0.31544,2.02154 -1.27271,3.3867 -2.0468,5.3849 -0.92778,2.39223 -1.1062,4.79857 -1.94523,7.50575 -0.63059,2.03607 -2.57221,12.87286 -5.31258,12.2147 2.01604,2.91872 -4.76556,12.28237 -5.93864,14.51298 -2.83107,5.38306 -2.14434,11.71827 -8.18848,15.18972 1.16244,0.34131 4.16138,-1.1774 5.15235,0.0217 -0.27799,0.12203 -0.6055,0.0803 -0.85483,0.27509 1.77559,1.74391 4.91027,4.56424 6.48613,5.47529 2.95932,1.71069 1.11443,-0.24203 4.70716,-1.20176 2.198,-0.58653 3.3867,1.06051 4.56256,2.66441 1.25476,1.71193 2.46774,0.72174 4.23892,0.70222 2.88922,-0.0316 7.056722,-1.82656 8.425732,-4.49944 0.82444,-1.60997 4.97181,-8.73291 6.08418,-8.83771 3.66887,-0.34448 6.78674,0.86978 9.73818,1.69743 2.67961,0.75335 3.48915,0.78803 5.71966,3.09358 1.31597,1.36026 2.68521,3.07212 3.73201,4.49694 1.3418,1.82573 0.39736,2.81144 3.56447,3.76088 1.73172,0.52054 2.56164,2.45637 4.12423,3.24458 1.25492,0.63196 2.86861,-0.63426 3.89702,0.76603 1.97322,2.68774 5.37162,-0.96178 6.2192,-0.66201 1.29563,0.45812 2.19062,2.46231 3.31434,3.60711 1.49797,1.52756 2.50129,1.47886 4.17104,3.63816 1.14019,1.47672 2.14127,3.40579 3.83952,4.28587 1.62401,0.84198 2.70324,-0.90985 4.52007,0.42685 3.72311,2.73916 5.1938,5.33755 8.53183,8.4307 1.97331,1.82945 3.94756,3.6586 5.92087,5.48806 1.1514,1.06761 -0.24961,3.62473 1.97547,3.59571 0.95077,-0.0129 7.30947,4.03166 8.16207,4.97377 3.41355,3.76848 4.47595,5.24502 9.2147,7.81386 7.8168,4.23712 15.54655,8.54323 23.34166,12.83041 5.03677,2.77023 10.0726,5.54076 15.10843,8.31129 3.12621,1.72002 2.30755,0.2827 4.92896,-0.96954 2.61601,-1.24946 4.10583,-1.49043 6.08446,-1.32879 10.22308,0.83755 7.80605,-8.43271 9.62618,-16.43816 0.63729,-2.80194 1.52641,-5.85615 1.13397,-8.71435 -0.41633,-3.02384 2.22208,-3.69117 1.89258,-6.57907 -0.25841,-2.27522 -0.53506,-3.58862 -0.84826,-5.5216 -0.30248,-1.87026 -0.0566,-3.18898 -0.15028,-5.28191 -0.0915,-2.05686 -0.29393,-9.43664 2.004,-10.17614 2.37695,-0.76493 0.62014,-1.88248 3.26869,-2.73376 0.9808,-0.31458 0.87457,2.32591 3.34433,0.60562 0.965,3.05422 1.5342,-0.22374 2.75198,0.0577 3.19931,0.74263 1.2541,-1.17255 2.14796,-2.94877 0.8935,-1.774 1.9725,-5.02168 3.08822,-8.03115 7.40736,-19.99024 22.12253,-40.83417 33.10115,-60.17941 C 273.96394,138.81592 240.82628,120.51751 207.0571,103.27955 191.82672,95.50334 175.83002,88.24791 160.26002,80.833108 l -27.47514,-13.08752 c -3.33346,-1.58714 -5.81089,1.2355 -7.61463,3.13854 -2.00166,2.11066 -3.94746,4.1109 -5.14886,7.02714 -1.25036,3.0318 -3.52856,11.719362 -7.39607,10.457462 -2.50267,3.06083 -2.55119,3.83385 -2.48414,7.78319"
         style="fill:#000000;fill-opacity:1;fill-rule:nonzero;stroke:none"
         id="path3092"
         inkscape:connector-curvature="0" /></clipPath></defs><sodipodi:namedview
     pagecolor="#ffffff"
     bordercolor="#666666"
     borderopacity="1"
     objecttolerance="10"
     gridtolerance="10"
     guidetolerance="10"
     inkscape:pageopacity="0"
     inkscape:pageshadow="2"
     inkscape:window-width="1920"
     inkscape:window-height="1147"
     id="namedview4"
     showgrid="false"
     inkscape:zoom="0.6675088"
     inkscape:cx="291.27623"
     inkscape:cy="323.13961"
     inkscape:window-x="0"
     inkscape:window-y="0"
     inkscape:window-maximized="1"
     inkscape:current-layer="g3007"
     fit-margin-top="100"
     fit-margin-left="100"
     fit-margin-right="100"
     fit-margin-bottom="100" /><g
     id="g10"
     inkscape:groupmode="layer"
     inkscape:label="pdxgit3"
     transform="matrix(1.25,0,0,-1.25,-298.49539,887.47424)">

<g
   id="g3035"
   transform="translate(308.47458,247.45763)"><g
     id="g3075"
     transform="matrix(1.3566516,-0.21239759,0.21239759,1.3566516,-98.985608,-24.841637)"><g
       id="g3055"><g
         id="g3007"
         transform="matrix(1.1651736,-6.5925519e-4,-6.5925519e-4,1.1692813,-14.367641,6.8196202)"><g
   transform="matrix(0.71947384,0.11264094,0.11264094,-0.71947384,81.817252,-18.562253)"
   style=""
   id="text40"><path
     d="m 46.505642,28.088878 0,-10.467082 -13.77945,-1.192453 c -1.987418,-0.132494 -2.119915,-0.52998 -2.119915,-2.649894 l 0,-18.9467425 c 5.564772,4.50481547 12.057025,6.75723 18.946743,6.75723 21.861604,0 27.293909,-22.1266315 27.293909,-38.0259805 0,-24.64399 -10.599591,-33.918644 -25.438983,-33.918644 -7.552191,0 -16.164361,3.179878 -22.5241,8.347166 l -0.662474,-0.264989 -1.192452,-6.75723 -23.3190683,0 -1.4574417,10.732071 7.0222194,2.517399 c 1.3249456,0.397484 1.7224316,1.324949 1.7224316,2.782389 l 0,66.909826 c 0,1.987419 -0.529981,2.5174 -2.3849052,2.782389 l -5.2997882,0.794968 0,10.599577 43.1932744,0 M 30.871266,-49.818009 c 2.914881,-1.987419 8.214678,-4.76981 13.77945,-4.76981 6.624728,0 11.26205,5.564792 11.26205,19.211733 0,12.984468 -3.709861,21.464142 -12.586997,21.464142 -4.9023,0 -9.539622,-2.517402 -12.454503,-5.034799 l 0,-30.871266"
     style="font-size:132.4947052px;font-variant:normal;font-weight:bold;font-stretch:normal;writing-mode:lr-tb;fill:#005500;fill-opacity:1;fill-rule:nonzero;stroke:none;font-family:Adelle Basic;-inkscape-font-specification:Adelle Basic"
     id="path3020" /><path
     d="m 160.45108,0 0,-10.467082 -6.35974,-0.927463 c -1.98742,-0.264989 -2.11992,-0.52998 -2.11992,-2.517399 l 0,-86.121556 -26.63143,0 -1.45745,10.732069 7.28721,2.517399 c 1.19245,0.397484 1.72243,1.324948 1.72243,2.649894 l 0,20.139195 c -5.03479,-3.709848 -10.99706,-6.359745 -18.68175,-6.359745 -14.706898,0 -28.088878,10.069624 -28.088878,36.701033 0,25.3064633 10.069614,35.2435915 25.703978,35.2435915 9.6721,0 16.16435,-3.7098572 21.72913,-9.1421347 l 0.92746,0.1324947 L 135.80707,0 160.45108,0 m -28.35386,-19.741711 c -3.57736,3.047375 -8.47967,5.697272 -12.98449,5.697272 -8.34715,0 -12.05701,-7.154727 -12.05701,-20.0067 0,-11.792017 3.84235,-20.934164 13.64695,-20.934164 3.84234,0 8.08218,1.722434 11.39455,3.974841 l 0,31.268751"
     style="font-size:132.4947052px;font-variant:normal;font-weight:bold;font-stretch:normal;writing-mode:lr-tb;fill:#005500;fill-opacity:1;fill-rule:nonzero;stroke:none;font-family:Adelle Basic;-inkscape-font-specification:Adelle Basic"
     id="path3022" /><path
     d="m 241.00787,0 0,-10.467082 -5.96226,-1.059957 c -1.58994,-0.264989 -2.11992,-1.059959 -3.44487,-2.384905 l -18.54926,-22.656595 16.16436,-17.886785 c 1.32494,-1.192451 1.72243,-1.987421 3.31237,-2.517399 l 6.09475,-1.324947 0,-10.732071 -29.28133,0 -1.32494,10.732071 7.2872,1.059957 -10.86456,12.322008 -9.80461,-12.322008 6.49224,-1.059957 0,-10.732071 -35.24359,0 -1.32495,10.732071 5.29979,1.457441 c 1.58994,0.529979 1.98742,0.927465 3.17987,2.25241 l 18.01928,21.464143 -17.4893,19.344227 c -1.19245,1.324945 -1.85493,1.987421 -3.44486,2.25241 l -5.96226,1.192452 0,10.334587 31.79873,0 0,-10.467082 -7.41971,-1.192452 10.99706,-13.116976 10.0696,13.249471 -6.22725,1.192452 0,10.334587 37.6285,0"
     style="font-size:132.4947052px;font-variant:normal;font-weight:bold;font-stretch:normal;writing-mode:lr-tb;fill:#005500;fill-opacity:1;fill-rule:nonzero;stroke:none;font-family:Adelle Basic;-inkscape-font-specification:Adelle Basic"
     id="path3024" /><path
     d="m 315.93361,-57.767691 0,-11.26205 -25.83647,0 c -3.04737,-0.794968 -6.49224,-1.324947 -12.18951,-1.324947 -20.27167,0 -30.34129,10.467096 -30.34129,25.703972 0,9.804599 4.90231,16.694336 11.39455,19.874206 -3.17987,2.914881 -5.82977,5.432286 -8.21467,7.949682 -2.38491,2.517397 -3.84235,5.167297 -3.84235,8.0821775 0,3.5773534 1.45745,6.8897265 5.82977,8.7446505 -4.63731,4.3723209 -7.28721,7.5522042 -7.28721,13.51446 0,10.467071 9.14216,16.561838 33.12368,16.561838 23.05405,0 36.43604,-8.612171 36.43604,-23.8490469 0,-17.6217781 -13.51448,-18.2842711 -36.43604,-19.7417111 l -12.98449,-0.794968 4.37233,-7.02222 c 2.3849,0.662473 6.22725,1.192453 10.46708,1.192453 16.69432,0 28.22137,-8.612171 28.22137,-23.319068 0,-6.094751 -2.5174,-10.33459 -4.9023,-13.381966 l 12.18951,-0.927462 m -24.77651,12.454502 c 0,6.889718 -5.0348,11.26205 -12.4545,11.26205 -8.74464,0 -12.32201,-4.504827 -12.32201,-10.997061 0,-8.612147 5.43229,-12.189513 12.71949,-12.189513 7.55219,0 12.05702,4.107344 12.05702,11.924524 m -7.28721,50.2154931 c 6.35974,0.3974837 11.39455,0.6624778 11.39455,4.9023041 0,7.1547068 -10.46709,7.6846928 -18.15178,7.6846928 -9.27462,0 -16.03186,-1.589942 -16.03186,-6.889725 0,-2.649891 1.72244,-4.9023058 3.44487,-7.022219 l 19.34422,1.3249471"
     style="font-size:132.4947052px;font-variant:normal;font-weight:bold;font-stretch:normal;writing-mode:lr-tb;fill:#005500;fill-opacity:1;fill-rule:nonzero;stroke:none;font-family:Adelle Basic;-inkscape-font-specification:Adelle Basic"
     id="path3026" /><path
     d="m 349.45477,-91.553841 c 0,-7.552191 -4.37234,-11.659539 -12.05702,-11.659539 -7.55219,0 -11.92453,4.107348 -11.92453,11.659539 0,7.55219 4.37234,11.924523 11.92453,11.924523 7.68468,0 12.05702,-4.372333 12.05702,-11.924523 M 358.06692,0 l 0,-10.467082 -6.75723,-0.927463 c -1.98742,-0.264989 -2.11991,-0.529981 -2.11991,-2.649894 l 0,-54.985302 -27.42641,0 -1.45744,10.732071 7.15471,2.517399 c 1.32495,0.397484 1.72244,1.324949 1.72244,2.782389 l 0,38.953443 c 0,1.987419 -0.265,2.384905 -2.11992,2.649894 l -6.75723,0.927463 0,10.467082 37.76099,0"
     style="font-size:132.4947052px;font-variant:normal;font-weight:bold;font-stretch:normal;writing-mode:lr-tb;fill:#005500;fill-opacity:1;fill-rule:nonzero;stroke:none;font-family:Adelle Basic;-inkscape-font-specification:Adelle Basic"
     id="path3028" /><path
     d="m 410.66734,-15.369386 c -3.17987,1.192451 -7.02222,2.119915 -10.73207,2.119915 -7.15471,0 -9.00964,-3.047386 -9.00964,-10.864565 l 0,-31.666235 19.74171,0 0,-13.24947 -18.68175,0 c -1.05996,0 -1.05996,-0.397485 -1.05996,-1.324947 l 0,-18.814249 -12.587,0 c -1.45744,14.441909 -6.09477,20.271692 -17.75429,21.596637 l 0,11.792029 9.27463,0 c 1.05996,0 1.05996,0.52998 1.05996,1.324947 l 0,34.713613 c 0,14.9718866 5.96228,21.3316475 21.72913,21.3316475 7.55219,0 15.89937,-2.51740222 21.59664,-5.2997882 l -3.57736,-11.6595343"
     style="font-size:132.4947052px;font-variant:normal;font-weight:bold;font-stretch:normal;writing-mode:lr-tb;fill:#005500;fill-opacity:1;fill-rule:nonzero;stroke:none;font-family:Adelle Basic;-inkscape-font-specification:Adelle Basic"
     id="path3030" /></g>
<path
   inkscape:connector-curvature="0"
   id="path22"
   style="fill:#00d400;fill-opacity:1;fill-rule:nonzero;stroke:none"
   d="m 110.14118,96.151916 c -2.40079,10.288074 -3.59375,18.257684 -5.78583,28.880934 -1.37773,6.67077 -2.85724,12.51602 -5.122032,18.85245 -1.276831,3.56977 -2.163913,10.07423 -4.83443,12.21525 0.315446,2.02155 -1.272712,3.3867 -2.046802,5.3849 -0.927776,2.39223 -1.106197,4.79857 -1.945223,7.50575 -0.630593,2.03607 -2.572217,12.87286 -5.312586,12.2147 2.016045,2.91873 -4.765555,12.28237 -5.938636,14.51298 -2.83107,5.38306 -2.144338,11.71827 -8.188486,15.18972 1.162443,0.34131 4.161386,-1.1774 5.152352,0.0217 -0.277984,0.12203 -0.605496,0.0803 -0.854827,0.27509 1.775592,1.74391 4.910271,4.56424 6.486126,5.47529 2.959326,1.71069 1.114435,-0.24203 4.707162,-1.20176 2.197997,-0.58653 3.386698,1.06051 4.562566,2.66441 1.254753,1.71193 2.467737,0.72174 4.238912,0.70222 2.889226,-0.0316 7.056724,-1.82656 8.425734,-4.49944 0.82444,-1.60997 4.97181,-8.73291 6.08418,-8.83771 3.66887,-0.34448 6.78674,0.86978 9.73818,1.69743 2.67961,0.75335 3.48915,0.78803 5.71966,3.09358 1.31597,1.36026 2.68521,3.07212 3.73201,4.49694 1.3418,1.82573 0.39736,2.81144 3.56447,3.76088 1.73172,0.52054 2.56164,2.45637 4.12423,3.24458 1.25492,0.63196 2.86861,-0.63426 3.89702,0.76603 1.97322,2.68774 5.37162,-0.96178 6.2192,-0.66201 1.29563,0.45812 2.19062,2.46231 3.31434,3.60711 1.49797,1.52756 2.50129,1.47886 4.17104,3.63816 1.14019,1.47672 2.14127,3.40579 3.83952,4.28587 1.62401,0.84198 2.70324,-0.90985 4.52007,0.42685 3.72311,2.73916 5.1938,5.33755 8.53183,8.4307 1.97331,1.82945 3.94756,3.6586 5.92087,5.48806 1.1514,1.06761 -0.24961,3.62473 1.97547,3.59571 0.95077,-0.0129 7.30947,4.03166 8.16207,4.97377 3.41354,3.76848 4.47594,5.24502 9.2147,7.81386 7.8168,4.23712 15.54655,8.54323 23.34165,12.83041 5.03678,2.77023 10.07261,5.54076 15.10843,8.31129 3.12621,1.72002 2.30755,0.2827 4.92897,-0.96954 2.61601,-1.24946 4.10582,-1.49043 6.08446,-1.32879 10.22307,0.83755 7.80604,-8.43271 9.62617,-16.43816 0.6373,-2.80194 1.52642,-5.85615 1.13398,-8.71435 -0.41633,-3.02384 2.22208,-3.69117 1.89257,-6.57907 -0.25841,-2.27522 -0.53506,-3.58862 -0.84826,-5.5216 -0.30248,-1.87026 -0.0566,-3.18898 -0.15028,-5.28191 -0.0915,-2.05686 -0.29393,-9.43664 2.00401,-10.17614 2.37695,-0.76493 0.62014,-1.88248 3.26869,-2.73376 0.98079,-0.31458 0.87457,2.32591 3.34432,0.60562 0.96501,3.05422 1.53421,-0.22374 2.75199,0.0577 3.19931,0.74263 1.2541,-1.17255 2.14795,-2.94877 0.89351,-1.774 1.9725,-5.02168 3.08822,-8.03115 7.40736,-19.99024 22.12253,-40.83417 33.10116,-60.17941 C 273.96394,138.81592 240.82627,120.51751 207.0571,103.27955 191.82671,95.503337 175.83002,88.247913 160.26002,80.833115 L 132.78488,67.745587 c -3.33346,-1.587138 -5.81089,1.235497 -7.61463,3.138546 -2.00166,2.110659 -3.94746,4.110897 -5.14886,7.027138 -1.25036,3.031793 -3.52856,11.719366 -7.39607,10.457463 -2.50267,3.06082 -2.55119,3.83385 -2.48414,7.783182" /><path
   clip-path="url(#clipPath3090)"
   sodipodi:nodetypes="cc"
   inkscape:connector-curvature="0"
   id="path26-7-1"
   style="fill:none;stroke:#ffffff;stroke-width:10.64099979;stroke-linecap:butt;stroke-linejoin:miter;stroke-miterlimit:10;stroke-opacity:1;stroke-dasharray:none"
   d="M 89.489912,221.25672 160.89986,77.672403" /><path
   clip-path="url(#clipPath3086)"
   sodipodi:nodetypes="cc"
   inkscape:connector-curvature="0"
   id="path26"
   style="fill:none;stroke:#ffffff;stroke-width:10.64099979;stroke-linecap:butt;stroke-linejoin:miter;stroke-miterlimit:10;stroke-opacity:1;stroke-dasharray:none"
   d="M 262.8951,259.82513 118.0564,188.39466" /><path
   sodipodi:nodetypes="cc"
   inkscape:connector-curvature="0"
   id="path30"
   style="fill:none;stroke:#ffffff;stroke-width:10.64099979;stroke-linecap:butt;stroke-linejoin:miter;stroke-miterlimit:10;stroke-opacity:1;stroke-dasharray:none"
   d="M 216.05649,236.69788 182.30543,152.65342" /><path
   inkscape:connector-curvature="0"
   id="path34"
   style="fill:#ffffff;fill-opacity:1;fill-rule:nonzero;stroke:none"
   d="m 231.22819,231.60674 c -2.74326,-8.52447 -11.87793,-13.21046 -20.40144,-10.46751 -8.52447,2.74326 -13.20982,11.87667 -10.46656,20.40114 2.74295,8.52351 11.87572,13.21012 20.40019,10.46686 8.52351,-2.74295 13.21076,-11.87697 10.46781,-20.40049" /><path
   sodipodi:nodetypes="csssc"
   inkscape:connector-curvature="0"
   id="path38"
   style="fill:#ffffff;fill-opacity:1;fill-rule:nonzero;stroke:none"
   d="m 196.83902,148.7743 c -2.74326,-8.52447 -11.87793,-13.21046 -20.40144,-10.46751 -8.52447,2.74326 -13.20982,11.87667 -10.46656,20.40114 2.74295,8.52351 11.87572,13.21012 20.40019,10.46686 8.52351,-2.74295 13.21076,-11.87697 10.46781,-20.40049" /><path
   inkscape:connector-curvature="0"
   id="path54"
   style="fill:#005500;fill-opacity:1;fill-rule:nonzero;stroke:none"
   d="m 108.7485,171.665 c -6.182,0 -11.212,5.03 -11.212,11.213 0,6.183 5.03,11.213 11.212,11.213 6.183,0 11.214,-5.03 11.214,-11.213 0,-6.183 -5.031,-11.213 -11.214,-11.213" /><path
   inkscape:connector-curvature="0"
   id="path58"
   style="fill:#ffffff;fill-opacity:1;fill-rule:nonzero;stroke:none"
   d="m 108.7485,199.0913 c -8.953,0 -16.212,-7.258 -16.212,-16.213 0,-8.955 7.259,-16.213 16.212,-16.213 8.954,0 16.214,7.258 16.214,16.213 0,8.955 -7.26,16.213 -16.214,16.213 m 0,-10 c 3.426,0 6.214,-2.787 6.214,-6.213 0,-3.426 -2.788,-6.213 -6.214,-6.213 -3.425,0 -6.212,2.787 -6.212,6.213 0,3.426 2.787,6.213 6.212,6.213" /><path
   sodipodi:nodetypes="cc"
   inkscape:connector-curvature="0"
   id="path26-7-1-5"
   style="fill:none;stroke:#ffffff;stroke-width:10.64099979;stroke-linecap:butt;stroke-linejoin:miter;stroke-miterlimit:10;stroke-opacity:1;stroke-dasharray:none"
   d="m 139.39374,119.7471 42.87296,33.04795" /><path
   inkscape:connector-curvature="0"
   id="path38-7"
   style="fill:#ffffff;fill-opacity:1;fill-rule:nonzero;stroke:none"
   d="m 154.37431,115.95123 c -2.74326,-8.52447 -11.87793,-13.21046 -20.40144,-10.46751 -8.52447,2.74326 -13.20982,11.87667 -10.46656,20.40114 2.74295,8.52351 11.87572,13.21012 20.40019,10.46686 8.52351,-2.74295 13.21076,-11.87697 10.46781,-20.40049" /></g></g></g></g></g></svg>